<mxfile host="app.diagrams.net" modified="2023-07-27T09:29:56.407Z" agent="Mozilla/5.0 (Windows NT 10.0; Win64; x64) AppleWebKit/537.36 (KHTML, like Gecko) Chrome/115.0.0.0 Safari/537.36" etag="rm7DMK1NYO9n4WRdCHgp" version="21.1.2" type="github">
  <diagram name="페이지-1" id="bU2NZTIaEhqbro70TaHq">
    <mxGraphModel dx="1302" dy="712" grid="1" gridSize="10" guides="1" tooltips="1" connect="1" arrows="1" fold="1" page="1" pageScale="1" pageWidth="900" pageHeight="1600" math="0" shadow="0">
      <root>
        <mxCell id="0" />
        <mxCell id="1" parent="0" />
        <mxCell id="e1QzqeoaWX7DJkaBibCD-5" value="" style="edgeStyle=orthogonalEdgeStyle;rounded=0;orthogonalLoop=1;jettySize=auto;html=1;" edge="1" parent="1" source="e1QzqeoaWX7DJkaBibCD-1" target="e1QzqeoaWX7DJkaBibCD-4">
          <mxGeometry relative="1" as="geometry" />
        </mxCell>
        <mxCell id="e1QzqeoaWX7DJkaBibCD-1" value="&lt;span style=&quot;font-size: 13px;&quot;&gt;Http Request&lt;/span&gt;" style="text;html=1;strokeColor=none;fillColor=none;align=center;verticalAlign=middle;whiteSpace=wrap;rounded=0;fontSize=13;" vertex="1" parent="1">
          <mxGeometry x="40" y="40" width="80" height="40" as="geometry" />
        </mxCell>
        <mxCell id="e1QzqeoaWX7DJkaBibCD-7" value="" style="edgeStyle=orthogonalEdgeStyle;rounded=0;orthogonalLoop=1;jettySize=auto;html=1;" edge="1" parent="1" source="e1QzqeoaWX7DJkaBibCD-4" target="e1QzqeoaWX7DJkaBibCD-6">
          <mxGeometry relative="1" as="geometry" />
        </mxCell>
        <mxCell id="e1QzqeoaWX7DJkaBibCD-4" value="Filter" style="whiteSpace=wrap;html=1;" vertex="1" parent="1">
          <mxGeometry x="180" y="30" width="120" height="60" as="geometry" />
        </mxCell>
        <mxCell id="e1QzqeoaWX7DJkaBibCD-9" value="" style="edgeStyle=orthogonalEdgeStyle;rounded=0;orthogonalLoop=1;jettySize=auto;html=1;" edge="1" parent="1" source="e1QzqeoaWX7DJkaBibCD-6" target="e1QzqeoaWX7DJkaBibCD-8">
          <mxGeometry relative="1" as="geometry" />
        </mxCell>
        <mxCell id="e1QzqeoaWX7DJkaBibCD-50" value="" style="edgeStyle=orthogonalEdgeStyle;rounded=0;orthogonalLoop=1;jettySize=auto;html=1;" edge="1" parent="1" source="e1QzqeoaWX7DJkaBibCD-6" target="e1QzqeoaWX7DJkaBibCD-49">
          <mxGeometry relative="1" as="geometry" />
        </mxCell>
        <mxCell id="e1QzqeoaWX7DJkaBibCD-6" value="DelegatingFilterProxy" style="whiteSpace=wrap;html=1;" vertex="1" parent="1">
          <mxGeometry x="160" y="130" width="160" height="60" as="geometry" />
        </mxCell>
        <mxCell id="e1QzqeoaWX7DJkaBibCD-11" value="" style="edgeStyle=orthogonalEdgeStyle;rounded=0;orthogonalLoop=1;jettySize=auto;html=1;" edge="1" parent="1" source="e1QzqeoaWX7DJkaBibCD-8" target="e1QzqeoaWX7DJkaBibCD-10">
          <mxGeometry relative="1" as="geometry" />
        </mxCell>
        <mxCell id="e1QzqeoaWX7DJkaBibCD-8" value="SecurityFilterChain" style="whiteSpace=wrap;html=1;" vertex="1" parent="1">
          <mxGeometry x="180" y="270" width="120" height="60" as="geometry" />
        </mxCell>
        <mxCell id="e1QzqeoaWX7DJkaBibCD-13" value="" style="edgeStyle=orthogonalEdgeStyle;rounded=0;orthogonalLoop=1;jettySize=auto;html=1;" edge="1" parent="1" source="e1QzqeoaWX7DJkaBibCD-10" target="e1QzqeoaWX7DJkaBibCD-12">
          <mxGeometry relative="1" as="geometry" />
        </mxCell>
        <mxCell id="e1QzqeoaWX7DJkaBibCD-10" value="SecurityContextPersitenceFilter" style="whiteSpace=wrap;html=1;" vertex="1" parent="1">
          <mxGeometry x="140" y="410" width="200" height="60" as="geometry" />
        </mxCell>
        <mxCell id="e1QzqeoaWX7DJkaBibCD-46" value="" style="group" vertex="1" connectable="0" parent="1">
          <mxGeometry x="70" y="550" width="340" height="290" as="geometry" />
        </mxCell>
        <mxCell id="e1QzqeoaWX7DJkaBibCD-12" value="" style="whiteSpace=wrap;html=1;container=0;" vertex="1" parent="e1QzqeoaWX7DJkaBibCD-46">
          <mxGeometry width="340" height="289.99999999999994" as="geometry" />
        </mxCell>
        <mxCell id="e1QzqeoaWX7DJkaBibCD-36" value="" style="rounded=0;whiteSpace=wrap;html=1;container=0;" vertex="1" parent="e1QzqeoaWX7DJkaBibCD-46">
          <mxGeometry x="16.999999999999996" y="64.44444444444446" width="305.99999999999994" height="209.4444444444444" as="geometry" />
        </mxCell>
        <mxCell id="e1QzqeoaWX7DJkaBibCD-38" value="" style="rounded=0;whiteSpace=wrap;html=1;container=0;" vertex="1" parent="e1QzqeoaWX7DJkaBibCD-46">
          <mxGeometry x="33.99999999999999" y="128.8888888888889" width="272" height="128.88888888888889" as="geometry" />
        </mxCell>
        <mxCell id="e1QzqeoaWX7DJkaBibCD-40" value="SecurityContextHolder" style="text;html=1;strokeColor=none;fillColor=none;align=center;verticalAlign=middle;whiteSpace=wrap;rounded=0;container=0;" vertex="1" parent="e1QzqeoaWX7DJkaBibCD-46">
          <mxGeometry x="138.12499999999997" y="20" width="63.749999999999986" height="30" as="geometry" />
        </mxCell>
        <mxCell id="e1QzqeoaWX7DJkaBibCD-41" value="SecurityContext" style="text;html=1;strokeColor=none;fillColor=none;align=center;verticalAlign=middle;whiteSpace=wrap;rounded=0;container=0;" vertex="1" parent="e1QzqeoaWX7DJkaBibCD-46">
          <mxGeometry x="138.12499999999997" y="80" width="63.749999999999986" height="30" as="geometry" />
        </mxCell>
        <mxCell id="e1QzqeoaWX7DJkaBibCD-42" value="Authentication(UsernamePasswordAuthentication)" style="text;html=1;strokeColor=none;fillColor=none;align=center;verticalAlign=middle;whiteSpace=wrap;rounded=0;container=0;" vertex="1" parent="e1QzqeoaWX7DJkaBibCD-46">
          <mxGeometry x="138.12499999999997" y="140" width="63.749999999999986" height="30" as="geometry" />
        </mxCell>
        <mxCell id="e1QzqeoaWX7DJkaBibCD-43" value="" style="rounded=0;whiteSpace=wrap;html=1;container=0;" vertex="1" parent="e1QzqeoaWX7DJkaBibCD-46">
          <mxGeometry x="116.87499999999997" y="180" width="106.24999999999997" height="60" as="geometry" />
        </mxCell>
        <mxCell id="e1QzqeoaWX7DJkaBibCD-44" value="Principal, Credential, Authrities" style="text;html=1;strokeColor=none;fillColor=none;align=center;verticalAlign=middle;whiteSpace=wrap;rounded=0;container=0;" vertex="1" parent="e1QzqeoaWX7DJkaBibCD-46">
          <mxGeometry x="138.12499999999997" y="195" width="63.749999999999986" height="30" as="geometry" />
        </mxCell>
        <mxCell id="e1QzqeoaWX7DJkaBibCD-53" value="" style="edgeStyle=orthogonalEdgeStyle;rounded=0;orthogonalLoop=1;jettySize=auto;html=1;" edge="1" parent="1" source="e1QzqeoaWX7DJkaBibCD-49" target="e1QzqeoaWX7DJkaBibCD-52">
          <mxGeometry relative="1" as="geometry" />
        </mxCell>
        <mxCell id="e1QzqeoaWX7DJkaBibCD-49" value="FilterChainProxy" style="whiteSpace=wrap;html=1;" vertex="1" parent="1">
          <mxGeometry x="590" y="220" width="160" height="60" as="geometry" />
        </mxCell>
        <mxCell id="e1QzqeoaWX7DJkaBibCD-51" value="요청 위임" style="text;html=1;strokeColor=none;fillColor=none;align=center;verticalAlign=middle;whiteSpace=wrap;rounded=0;fontSize=13;" vertex="1" parent="1">
          <mxGeometry x="330" y="130" width="60" height="30" as="geometry" />
        </mxCell>
        <mxCell id="e1QzqeoaWX7DJkaBibCD-56" value="" style="edgeStyle=orthogonalEdgeStyle;rounded=0;orthogonalLoop=1;jettySize=auto;html=1;" edge="1" parent="1" source="e1QzqeoaWX7DJkaBibCD-52" target="e1QzqeoaWX7DJkaBibCD-55">
          <mxGeometry relative="1" as="geometry" />
        </mxCell>
        <mxCell id="e1QzqeoaWX7DJkaBibCD-52" value="UsernamePasswordAuthenticationFilter&lt;span style=&quot;font-family: se-nanumbarungothic, arial, &amp;quot;\\B098눔바른고딕&amp;quot;, nanumbarungothic, sans-serif, Meiryo; font-size: 19px; text-align: left; background-color: rgb(255, 255, 255);&quot;&gt;&lt;/span&gt;" style="whiteSpace=wrap;html=1;" vertex="1" parent="1">
          <mxGeometry x="560" y="350" width="220" height="60" as="geometry" />
        </mxCell>
        <mxCell id="e1QzqeoaWX7DJkaBibCD-58" value="" style="edgeStyle=orthogonalEdgeStyle;rounded=0;orthogonalLoop=1;jettySize=auto;html=1;entryX=0.5;entryY=0;entryDx=0;entryDy=0;" edge="1" parent="1" source="e1QzqeoaWX7DJkaBibCD-55" target="e1QzqeoaWX7DJkaBibCD-63">
          <mxGeometry relative="1" as="geometry" />
        </mxCell>
        <mxCell id="e1QzqeoaWX7DJkaBibCD-55" value="attemptAuthentication() 메서드" style="whiteSpace=wrap;html=1;" vertex="1" parent="1">
          <mxGeometry x="560" y="470" width="220" height="60" as="geometry" />
        </mxCell>
        <mxCell id="e1QzqeoaWX7DJkaBibCD-57" value="UsernamePasswordAuthenticationToken&lt;br&gt;(&lt;span style=&quot;background-color: initial; text-align: left;&quot;&gt;Authentication 객체)&lt;/span&gt;" style="whiteSpace=wrap;html=1;" vertex="1" parent="1">
          <mxGeometry x="130" y="950" width="220" height="60" as="geometry" />
        </mxCell>
        <mxCell id="e1QzqeoaWX7DJkaBibCD-62" value="" style="endArrow=classic;html=1;rounded=0;exitX=0.5;exitY=0;exitDx=0;exitDy=0;" edge="1" parent="1" source="e1QzqeoaWX7DJkaBibCD-57" target="e1QzqeoaWX7DJkaBibCD-38">
          <mxGeometry width="50" height="50" relative="1" as="geometry">
            <mxPoint x="480" y="750" as="sourcePoint" />
            <mxPoint x="530" y="700" as="targetPoint" />
          </mxGeometry>
        </mxCell>
        <mxCell id="e1QzqeoaWX7DJkaBibCD-66" value="" style="edgeStyle=orthogonalEdgeStyle;rounded=0;orthogonalLoop=1;jettySize=auto;html=1;" edge="1" parent="1" source="e1QzqeoaWX7DJkaBibCD-63" target="e1QzqeoaWX7DJkaBibCD-65">
          <mxGeometry relative="1" as="geometry" />
        </mxCell>
        <mxCell id="e1QzqeoaWX7DJkaBibCD-114" style="edgeStyle=orthogonalEdgeStyle;rounded=0;orthogonalLoop=1;jettySize=auto;html=1;exitX=0.75;exitY=0;exitDx=0;exitDy=0;" edge="1" parent="1" source="e1QzqeoaWX7DJkaBibCD-63">
          <mxGeometry relative="1" as="geometry">
            <mxPoint x="725.2857142857147" y="610" as="targetPoint" />
          </mxGeometry>
        </mxCell>
        <mxCell id="e1QzqeoaWX7DJkaBibCD-63" value="AbstractAuthenticationProcessingFilter&lt;div style=&quot;margin: 0px; padding: 0px; border: 0px; font-variant-numeric: inherit; font-variant-east-asian: inherit; font-variant-alternates: inherit; font-stretch: inherit; font-size: 19px; line-height: inherit; font-family: se-nanumbarungothic, arial, &amp;quot;\\B098눔바른고딕&amp;quot;, nanumbarungothic, sans-serif, Meiryo; font-optical-sizing: inherit; font-kerning: inherit; font-feature-settings: inherit; font-variation-settings: inherit; vertical-align: baseline; text-align: left; background-color: rgb(255, 255, 255); zoom: 1; opacity: 1;&quot; class=&quot;autosourcing-stub-extra&quot;&gt;&lt;/div&gt;&lt;span style=&quot;font-family: se-nanumbarungothic, arial, &amp;quot;\\B098눔바른고딕&amp;quot;, nanumbarungothic, sans-serif, Meiryo; font-size: 19px; text-align: left; background-color: rgb(255, 255, 255);&quot;&gt;&lt;/span&gt;" style="whiteSpace=wrap;html=1;" vertex="1" parent="1">
          <mxGeometry x="560" y="590" width="220" height="60" as="geometry" />
        </mxCell>
        <mxCell id="e1QzqeoaWX7DJkaBibCD-68" value="" style="edgeStyle=orthogonalEdgeStyle;rounded=0;orthogonalLoop=1;jettySize=auto;html=1;" edge="1" parent="1" source="e1QzqeoaWX7DJkaBibCD-65" target="e1QzqeoaWX7DJkaBibCD-67">
          <mxGeometry relative="1" as="geometry" />
        </mxCell>
        <mxCell id="e1QzqeoaWX7DJkaBibCD-65" value="AuthenticationManager&lt;span style=&quot;font-family: se-nanumbarungothic, arial, &amp;quot;\\B098눔바른고딕&amp;quot;, nanumbarungothic, sans-serif, Meiryo; font-size: 19px; text-align: left; background-color: rgb(255, 255, 255);&quot;&gt;&lt;/span&gt;" style="whiteSpace=wrap;html=1;" vertex="1" parent="1">
          <mxGeometry x="560" y="710" width="220" height="60" as="geometry" />
        </mxCell>
        <mxCell id="e1QzqeoaWX7DJkaBibCD-73" value="" style="edgeStyle=orthogonalEdgeStyle;rounded=0;orthogonalLoop=1;jettySize=auto;html=1;" edge="1" parent="1" source="e1QzqeoaWX7DJkaBibCD-67" target="e1QzqeoaWX7DJkaBibCD-72">
          <mxGeometry relative="1" as="geometry" />
        </mxCell>
        <mxCell id="e1QzqeoaWX7DJkaBibCD-67" value="ProviderManager" style="whiteSpace=wrap;html=1;" vertex="1" parent="1">
          <mxGeometry x="560" y="830" width="220" height="60" as="geometry" />
        </mxCell>
        <mxCell id="e1QzqeoaWX7DJkaBibCD-75" value="" style="edgeStyle=orthogonalEdgeStyle;rounded=0;orthogonalLoop=1;jettySize=auto;html=1;entryX=1;entryY=0.5;entryDx=0;entryDy=0;" edge="1" parent="1" source="e1QzqeoaWX7DJkaBibCD-72" target="e1QzqeoaWX7DJkaBibCD-57">
          <mxGeometry relative="1" as="geometry">
            <mxPoint x="370" y="1030" as="targetPoint" />
          </mxGeometry>
        </mxCell>
        <mxCell id="e1QzqeoaWX7DJkaBibCD-77" value="&lt;font style=&quot;font-size: 20px;&quot;&gt;인증&lt;/font&gt;" style="edgeLabel;html=1;align=center;verticalAlign=middle;resizable=0;points=[];" vertex="1" connectable="0" parent="e1QzqeoaWX7DJkaBibCD-75">
          <mxGeometry x="-0.0044" y="-1" relative="1" as="geometry">
            <mxPoint as="offset" />
          </mxGeometry>
        </mxCell>
        <mxCell id="e1QzqeoaWX7DJkaBibCD-72" value="AuthenticationProvider&lt;span style=&quot;margin: 0px; padding: 0px; border: 0px; font-variant-numeric: inherit; font-variant-east-asian: inherit; font-variant-alternates: inherit; font-stretch: inherit; font-size: 19px; line-height: inherit; font-family: se-nanumbarungothic, arial, &amp;quot;\\B098눔바른고딕&amp;quot;, nanumbarungothic, sans-serif, Meiryo; font-optical-sizing: inherit; font-kerning: inherit; font-feature-settings: inherit; font-variation-settings: inherit; vertical-align: baseline; text-align: left; background-color: rgb(255, 255, 255);&quot; id=&quot;SE-2ada3954-cf67-4cd2-8dc3-55a5dc4e3db7&quot; class=&quot;se-fs-fs19 se-ff-nanumbarungothic se-weight-unset se-style-unset&quot;&gt;&lt;br&gt;&lt;div style=&quot;margin: 0px; padding: 0px; border: 0px; font: inherit; vertical-align: baseline; zoom: 1; opacity: 1;&quot; class=&quot;autosourcing-stub-extra&quot;&gt;&lt;/div&gt;&lt;/span&gt;" style="whiteSpace=wrap;html=1;" vertex="1" parent="1">
          <mxGeometry x="560" y="950" width="220" height="60" as="geometry" />
        </mxCell>
      </root>
    </mxGraphModel>
  </diagram>
</mxfile>
